# xmcd CD database file
#
# Track frame offsets:
#	150
#	19675
#	45112
#	85562
#	114787
#	133875
#	160550
#	192375
#	222500
#	248100
#	276950
#
# Disc length: 4144 seconds
#
# Revision: 0
# Processed by: cddbd v1.5.2PL0 Copyright (c) Steve Scherf et al.
# Submitted via: CDex 1.51
#
DISCID=89102e0b
DTITLE=Harry Edison Six - How Long, How Long Blues
DYEAR=1991
DGENRE=Jazz
TTITLE0=Head Start
TTITLE1=Blue Monk
TTITLE2=Four Love
TTITLE3=Moten Swing
TTITLE4=What's Your Story Morning Glory
TTITLE5=Deli Blues (Blues For Blakey)
TTITLE6=I'm Confessin' (That I Love You)
TTITLE7=Blues For Sass
TTITLE8=A Simple Soul Song
TTITLE9=Mean Greens
TTITLE10=How Long, How Long Blues
EXTD=YEAR: 1991
EXTT0=
EXTT1=
EXTT2=
EXTT3=
EXTT4=
EXTT5=
EXTT6=
EXTT7=
EXTT8=
EXTT9=
EXTT10=
PLAYORDER=
